:FULLY-SPECIFIED
:FORCE-ALL-JOINTS-BE-3DOF
:DEGREES
883
root 3.87315 16.5016 30.5308 -10.9285 22.2971 0.359567
lfemur -15.2817 18.4276 -19.8339
ltibia 40.5373 -0 0
lfoot -13.4287 -3.09367 -0.0102285
ltoes -0.403229 0 0
rfemur -76.9555 -23.0528 34.4369
rtibia 94.5726 -0 0
rfoot 15.8023 21.8373 0.0521201
rtoes -11.8219 0 0
lowerback 15.1452 -3.53253 -7.01685
upperback 5.03463 -5.72725 -2.69624
thorax -2.66743 -2.83379 2.04808
lowerneck -7.49702 -3.30962 1.60199
upperneck 3.96875 -4.86378 4.80623
head 2.66811 -2.22959 1.04269
lclavicle 3.74709e-14 7.95139e-15 0
lhumerus -34.3785 -39.2597 88.2357
lradius 62.0166 -0 0
lwrist 21.0872 0 0
lhand 24.2676 11.7472 0.0208589
lfingers 7.12502 -0 0
lthumb 48.4832 33.6931 0.00745572
rclavicle 3.74709e-14 7.95139e-15 0
rhumerus -47.7257 -26.3176 -49.6357
rradius 72.7755 -0 0
rwrist -20.6198 0 0
rhand -37.3141 -38.9727 0.582847
rfingers 7.12502 -0 0
rthumb -10.3757 -68.3986 0.573473
884
root 3.86052 16.4966 30.5998 -10.3603 22.6358 0.227786
lfemur -16.0224 19.1283 -19.7099
ltibia 40.9889 -0 0
lfoot -13.6006 -2.85023 -0.0142472
ltoes -0.153722 0 0
rfemur -74.1433 -23.4088 32.3906
rtibia 94.9653 -0 0
rfoot 15.7026 19.7166 0.0726878
rtoes -9.60773 0 0
lowerback 14.4714 -3.58086 -6.87732
upperback 4.76986 -5.72851 -2.61329
thorax -2.58271 -2.83381 2.01548
lowerneck -7.48858 -3.51777 1.40762
upperneck 4.03427 -5.12696 4.82261
head 2.70334 -2.36197 1.06789
lclavicle 3.74709e-14 7.95139e-15 0
lhumerus -35.3202 -39.6187 89.5177
lradius 62.0621 -0 0
lwrist 20.5158 0 0
lhand 24.5933 12.0092 0.0290549
lfingers 7.12502 -0 0
lthumb 48.7808 33.7956 0.010385
rclavicle 3.74709e-14 7.95139e-15 0
rhumerus -47.1903 -24.8172 -51.9533
rradius 75.1929 -0 0
rwrist -19.8606 0 0
rhand -35.1653 -37.8764 0.813163
rfingers 7.12502 -0 0
rthumb -8.30271 -67.2798 0.800024
885
root 3.84788 16.4916 30.6688 -9.79153 22.9757 0.0993312
lfemur -16.7646 19.8304 -19.595
ltibia 41.4404 -0 0
lfoot -13.7726 -2.60678 -0.0175354
ltoes 0.0957863 -0 0
rfemur -71.3124 -23.6717 30.3228
rtibia 95.3581 -0 0
rfoot 15.6023 17.5958 0.0895546
rtoes -7.39358 0 0
lowerback 13.7975 -3.62755 -6.73721
upperback 4.50509 -5.72938 -2.53033
thorax -2.49799 -2.83379 1.98287
lowerneck -7.47942 -3.72589 1.21318
upperneck 4.09974 -5.39015 4.83868
head 2.73851 -2.49436 1.093
lclavicle 3.74709e-14 7.95139e-15 0
lhumerus -36.2769 -39.9611 90.8138
lradius 62.1077 -0 0
lwrist 19.9444 0 0
lhand 24.919 12.2713 0.0357613
lfingers 7.12502 -0 0
lthumb 49.0783 33.8981 0.0127819
rclavicle 3.74709e-14 7.95139e-15 0
rhumerus -46.7276 -23.2987 -54.2284
rradius 77.6103 -0 0
rwrist -19.1013 0 0
rhand -33.0123 -36.7721 1.00217
rfingers 7.12502 -0 0
rthumb -6.22559 -66.1535 0.985917
886
root 3.83525 16.4867 30.7378 -9.22213 23.3167 -0.0257698
lfemur -17.5087 20.5339 -19.4894
ltibia 41.8919 -0 0
lfoot -13.9445 -2.36332 -0.0200929
ltoes 0.345294 -0 0
rfemur -68.4682 -23.8405 28.24
rtibia 95.7508 -0 0
rfoot 15.5014 15.475 0.102697
rtoes -5.17942 0 0
lowerback 13.1234 -3.67259 -6.59656
upperback 4.24032 -5.72988 -2.44737
thorax -2.41328 -2.83372 1.95026
lowerneck -7.46955 -3.93398 1.01865
upperneck 4.16517 -5.65335 4.85447
head 2.77363 -2.62677 1.11803
lclavicle 3.74709e-14 7.95139e-15 0
lhumerus -37.2482 -40.2868 92.1236
lradius 62.1532 -0 0
lwrist 19.373 0 0
lhand 25.2447 12.5334 0.0409778
lfingers 7.12502 -0 0
lthumb 49.3759 34.0006 0.0146462
rclavicle 3.74709e-14 7.95139e-15 0
rhumerus -46.3353 -21.7647 -56.4653
rradius 80.0277 -0 0
rwrist -18.3421 0 0
rhand -30.856 -35.6615 1.14954
rfingers 7.12502 -0 0
rthumb -4.1451 -65.0211 1.13083
887
root 3.82261 16.4817 30.8068 -8.65208 23.6589 -0.147489
lfemur -18.2549 21.2387 -19.393
ltibia 42.3434 -0 0
lfoot -14.1165 -2.11986 -0.0219198
ltoes 0.594802 -0 0
rfemur -65.6166 -23.9143 26.1485
rtibia 96.1436 -0 0
rfoot 15.4001 13.3542 0.112098
rtoes -2.96526 0 0
lowerback 12.4491 -3.71597 -6.45539
upperback 3.97555 -5.72999 -2.3644
thorax -2.32856 -2.8336 1.91765
lowerneck -7.45898 -4.14203 0.824038
upperneck 4.23055 -5.91658 4.86995
head 2.8087 -2.75919 1.14299
lclavicle 3.74709e-14 7.95139e-15 0
lhumerus -38.2336 -40.5953 93.4467
lradius 62.1988 -0 0
lwrist 18.8016 0 0
lhand 25.5704 12.7956 0.0447041
lfingers 7.12502 -0 0
lthumb 49.6735 34.1032 0.0159778
rclavicle 3.74709e-14 7.95139e-15 0
rhumerus -46.0111 -20.2178 -58.668
rradius 82.4451 -0 0
rwrist -17.5828 0 0
rhand -28.6971 -34.546 1.25499
rfingers 7.12502 -0 0
rthumb -2.06206 -63.8841 1.23453
888
root 3.80998 16.4767 30.8758 -8.08131 24.0021 -0.265798
lfemur -19.0035 21.9445 -19.3061
ltibia 42.795 -0 0
lfoot -14.2884 -1.87639 -0.0230159
ltoes 0.84431 -0 0
rfemur -62.7634 -23.8929 24.0553
rtibia 96.5363 -0 0
rfoot 15.2986 11.2334 0.117743
rtoes -0.751106 0 0
lowerback 11.7748 -3.7577 -6.3137
upperback 3.71078 -5.72972 -2.28144
thorax -2.24384 -2.83344 1.88505
lowerneck -7.44769 -4.35004 0.629335
upperneck 4.29589 -6.17982 4.88515
head 2.84371 -2.89163 1.16787
lclavicle 3.74709e-14 7.95139e-15 0
lhumerus -39.2327 -40.8863 94.7825
lradius 62.2443 -0 0
lwrist 18.2302 0 0
lhand 25.8961 13.0578 0.0469399
lfingers 7.12502 -0 0
lthumb 49.9711 34.2057 0.0167768
rclavicle 3.74709e-14 7.95139e-15 0
rhumerus -45.7529 -18.6605 -60.8404
rradius 84.8625 -0 0
rwrist -16.8236 0 0
rhand -26.5365 -33.4273 1.31833
rfingers 7.12502 -0 0
rthumb 0.0226871 -62.7441 1.29681
889
root 3.79735 16.4717 30.9449 -7.50979 24.3465 -0.380666
lfemur -19.7547 22.6514 -19.2287
ltibia 43.2465 -0 0
lfoot -14.4604 -1.63292 -0.0233813
ltoes 1.09382 -0 0
rfemur -59.9144 -23.7762 21.9669
rtibia 96.929 -0 0
rfoot 15.1969 9.11259 0.119626
rtoes 1.46305 -0 0
lowerback 11.1003 -3.79776 -6.17153
upperback 3.44601 -5.72906 -2.19848
thorax -2.15913 -2.83322 1.85244
lowerneck -7.43569 -4.55802 0.434535
upperneck 4.3612 -6.44308 4.90005
head 2.87867 -3.02409 1.19267
lclavicle 3.74709e-14 7.95139e-15 0
lhumerus -40.2448 -41.1595 96.1307
lradius 62.2898 -0 0
lwrist 17.6588 0 0
lhand 26.2218 13.32 0.0476852
lfingers 7.12502 -0 0
lthumb 50.2688 34.3083 0.0170432
rclavicle 3.74709e-14 7.95139e-15 0
rhumerus -45.559 -17.0952 -62.9865
rradius 87.2798 -0 0
rwrist -16.0643 0 0
rhand -24.3751 -32.307 1.33946
rfingers 7.12502 -0 0
rthumb 2.1083 -61.6025 1.31759
890
root 3.78471 16.4667 31.0139 -6.93745 24.6918 -0.492065
lfemur -20.5089 23.3591 -19.161
ltibia 43.698 -0 0
lfoot -14.6324 -1.38944 -0.0230159
ltoes 1.34333 -0 0
rfemur -57.0755 -23.565 19.89
rtibia 97.3218 -0 0
rfoot 15.0951 6.99176 0.117743
rtoes 3.67721 -0 0
lowerback 10.4256 -3.83614 -6.02888
upperback 3.18124 -5.72803 -2.11552
thorax -2.07441 -2.83296 1.81983
lowerneck -7.42297 -4.76596 0.239634
upperneck 4.42647 -6.70636 4.91465
head 2.91358 -3.15656 1.21739
lclavicle 3.74709e-14 7.95139e-15 0
lhumerus -41.2692 -41.4146 97.4905
lradius 62.3354 -0 0
lwrist 17.0874 0 0
lhand 26.5476 13.5821 0.0469399
lfingers 7.12502 -0 0
lthumb 50.5664 34.4109 0.0167768
rclavicle 3.74709e-14 7.95139e-15 0
rhumerus -45.4275 -15.524 -65.1099
rradius 89.6972 -0 0
rwrist -15.3051 0 0
rhand -22.2136 -31.1868 1.31833
rfingers 7.12502 -0 0
rthumb 4.19391 -60.4609 1.29681
